# xmcd
#
# Track frame offsets: 
#        150
#        9546
#        21427
#        31877
#        42979
#        53438
#        64839
#        75905
#        89136
#        98326
#        108545
#        129154
#        140022
#        156242
#        166652
#        181568
#        194496
#        205463
#        216072
#        227908
#        241312
#        251597
#
# Disc length: 3486 seconds
#
# Revision: 2
# Processed by: cddbd v1.5.2PL0 Copyright (c) Steve Scherf et al.
# Submitted via: ExactAudioCopy v1.0b1
#
DISCID=200d9c16
DTITLE=Dee Clark - COL 7265
DYEAR=2000
DGENRE=
TTITLE0=You're Looking Good (stereo)
TTITLE1=Wondering
TTITLE2=Kangaroo Hop
TTITLE3=I Just Can't Help Myself (stereo)
TTITLE4=Little Red Riding Hood
TTITLE5=Gloria
TTITLE6=Come To California
TTITLE7=Baby What You Want Me To Do
TTITLE8=24 Boyfriends
TTITLE9=Just Like A Fool
TTITLE10=What'd I Say
TTITLE11=Hold On (stereo)
TTITLE12=Portrait Of My Love (stereo)
TTITLE13=Cupid (stereo)
TTITLE14=Always Together (stereo)
TTITLE15=Raindrops (stereo)
TTITLE16=Cindy (stereo)
TTITLE17=Nature Boy (stereo)
TTITLE18=What Kind Of Fool (stereo)
TTITLE19=Whisperin' Grass (stereo)
TTITLE20=I Want To Love You (stereo)
TTITLE21=Your Friends (stereo)
EXTD=
EXTT0=
EXTT1=
EXTT2=
EXTT3=
EXTT4=
EXTT5=
EXTT6=
EXTT7=
EXTT8=
EXTT9=
EXTT10=
EXTT11=
EXTT12=
EXTT13=
EXTT14=
EXTT15=
EXTT16=
EXTT17=
EXTT18=
EXTT19=
EXTT20=
EXTT21=
PLAYORDER=
